# xmcd
#
# Track frame offsets:
#	150
#	12342
#	26402
#	39177
#	51247
#	63562
#	74817
#	86207
#	97275
#	109037
#	121797
#	134490
#	147832
#	160130
#	172370
#	184660
#	197605
#	208562
#
# Disc length: 2941 seconds
#
# Revision: 1
# Processed by: cddbd v1.5.2PL0 Copyright (c) Steve Scherf et al.
# Submitted via: audiograbber 1.83.01
#
DISCID=0d0b7b12
DTITLE=Various Artist - Country and Western Story
DYEAR=1997
DGENRE=Country
TTITLE0=Bob Wills and His Texas Playboys - Take Me Back To Tulsa  
TTITLE1=Ernest Tubb - Our Baby's Book
TTITLE2=Jimmy Wakely - Oklahoma Hills
TTITLE3=Gene Autry - (I've Got Spurs That) Jingle, Jangle, Jingle
TTITLE4=Merle Travis - Steel Guitar Rag
TTITLE5=Tex Ritter - I'm A Natural Born Cowboy
TTITLE6=Spade Cooley - You'll Rue The Day
TTITLE7=Eddy Arnold - It's A Sin
TTITLE8=Al Dexter - Honky Tonk Blues
TTITLE9=Bob Wills and His Texas Playboys - New Spanish Two Step
TTITLE10=Ernest Tubb - You Nearly Lose Your Mind
TTITLE11=Jimmy Wakely - Song Of The Sierras
TTITLE12=Spade Cooley - I Can't Help The Way You Feel
TTITLE13=Eddy Arnold - I'll Hold You In My Heart (Till I Can Hold You In My Arm
TTITLE13=s)
TTITLE14=Tex Ritter - You Two - Timed Me One Time Too Often
TTITLE15=Merle Travis - Sixteen Tons
TTITLE16=Gene Autry - Red River Valley
TTITLE17=Bob Wills and His Texas Playboys - Time Changes Everything
EXTD=
EXTT0=1941
EXTT1=1941
EXTT2=1947
EXTT3=1942
EXTT4=1947
EXTT5=1937
EXTT6=1945
EXTT7=1946
EXTT8=1937
EXTT9=1945
EXTT10=1942
EXTT11=1947
EXTT12=1946
EXTT13=1947
EXTT14=1945
EXTT15=1947
EXTT16=1946
EXTT17=1940
PLAYORDER=
